<mxfile host="app.diagrams.net" agent="Mozilla/5.0 (Windows NT 10.0; Win64; x64) AppleWebKit/537.36 (KHTML, like Gecko) Chrome/128.0.0.0 Safari/537.36" version="24.7.12">
  <diagram name="PÃ¡gina-1" id="lZqBhxNxPQuEYqGv3sEB">
    <mxGraphModel dx="2261" dy="738" grid="1" gridSize="10" guides="1" tooltips="1" connect="1" arrows="1" fold="1" page="1" pageScale="1" pageWidth="827" pageHeight="1169" math="0" shadow="0">
      <root>
        <mxCell id="0" />
        <mxCell id="1" parent="0" />
        <mxCell id="IE1BwV5bnImPkAkkBF8V-1" value="Fato_Venda" style="swimlane;fontStyle=0;childLayout=stackLayout;horizontal=1;startSize=30;horizontalStack=0;resizeParent=1;resizeParentMax=0;resizeLast=0;collapsible=1;marginBottom=0;whiteSpace=wrap;html=1;" parent="1" vertex="1">
          <mxGeometry x="-70" y="450" width="140" height="300" as="geometry" />
        </mxCell>
        <mxCell id="IE1BwV5bnImPkAkkBF8V-2" value="&lt;span style=&quot;font-family: Helvetica, &amp;quot;VP Default&amp;quot;; text-wrap: nowrap; background-color: rgb(248, 249, 250);&quot;&gt;id_venda (pk)&lt;/span&gt;" style="text;strokeColor=none;fillColor=none;align=left;verticalAlign=middle;spacingLeft=4;spacingRight=4;overflow=hidden;points=[[0,0.5],[1,0.5]];portConstraint=eastwest;rotatable=0;whiteSpace=wrap;html=1;" parent="IE1BwV5bnImPkAkkBF8V-1" vertex="1">
          <mxGeometry y="30" width="140" height="30" as="geometry" />
        </mxCell>
        <mxCell id="IE1BwV5bnImPkAkkBF8V-3" value="&lt;span style=&quot;font-family: Helvetica, &amp;quot;VP Default&amp;quot;; text-wrap: nowrap; background-color: rgb(248, 249, 250);&quot;&gt;id_tempo&amp;nbsp;&lt;/span&gt;&lt;span style=&quot;font-family: Helvetica, &amp;quot;VP Default&amp;quot;; text-wrap: nowrap; background-color: rgb(248, 249, 250);&quot;&gt;(fk)&lt;/span&gt;" style="text;strokeColor=none;fillColor=none;align=left;verticalAlign=middle;spacingLeft=4;spacingRight=4;overflow=hidden;points=[[0,0.5],[1,0.5]];portConstraint=eastwest;rotatable=0;whiteSpace=wrap;html=1;" parent="IE1BwV5bnImPkAkkBF8V-1" vertex="1">
          <mxGeometry y="60" width="140" height="30" as="geometry" />
        </mxCell>
        <mxCell id="IE1BwV5bnImPkAkkBF8V-4" value="&lt;span style=&quot;font-family: Helvetica, &amp;quot;VP Default&amp;quot;; text-wrap: nowrap; background-color: rgb(248, 249, 250);&quot;&gt;id_produto&amp;nbsp;&lt;/span&gt;&lt;span style=&quot;font-family: Helvetica, &amp;quot;VP Default&amp;quot;; text-wrap: nowrap; background-color: rgb(248, 249, 250);&quot;&gt;(fk)&lt;/span&gt;" style="text;strokeColor=none;fillColor=none;align=left;verticalAlign=middle;spacingLeft=4;spacingRight=4;overflow=hidden;points=[[0,0.5],[1,0.5]];portConstraint=eastwest;rotatable=0;whiteSpace=wrap;html=1;" parent="IE1BwV5bnImPkAkkBF8V-1" vertex="1">
          <mxGeometry y="90" width="140" height="30" as="geometry" />
        </mxCell>
        <mxCell id="IE1BwV5bnImPkAkkBF8V-7" value="&lt;span style=&quot;font-family: Helvetica, &amp;quot;VP Default&amp;quot;; text-wrap: nowrap; background-color: rgb(248, 249, 250);&quot;&gt;id_cliente&amp;nbsp;&lt;/span&gt;&lt;span style=&quot;font-family: Helvetica, &amp;quot;VP Default&amp;quot;; text-wrap: nowrap; background-color: rgb(248, 249, 250);&quot;&gt;(fk)&lt;/span&gt;" style="text;strokeColor=none;fillColor=none;align=left;verticalAlign=middle;spacingLeft=4;spacingRight=4;overflow=hidden;points=[[0,0.5],[1,0.5]];portConstraint=eastwest;rotatable=0;whiteSpace=wrap;html=1;" parent="IE1BwV5bnImPkAkkBF8V-1" vertex="1">
          <mxGeometry y="120" width="140" height="30" as="geometry" />
        </mxCell>
        <mxCell id="IE1BwV5bnImPkAkkBF8V-9" value="&lt;span style=&quot;font-family: Helvetica, &amp;quot;VP Default&amp;quot;; text-wrap: nowrap; background-color: rgb(248, 249, 250);&quot;&gt;id_localizacao&amp;nbsp;&lt;/span&gt;&lt;span style=&quot;font-family: Helvetica, &amp;quot;VP Default&amp;quot;; text-wrap: nowrap; background-color: rgb(248, 249, 250);&quot;&gt;(fk)&lt;/span&gt;" style="text;strokeColor=none;fillColor=none;align=left;verticalAlign=middle;spacingLeft=4;spacingRight=4;overflow=hidden;points=[[0,0.5],[1,0.5]];portConstraint=eastwest;rotatable=0;whiteSpace=wrap;html=1;" parent="IE1BwV5bnImPkAkkBF8V-1" vertex="1">
          <mxGeometry y="150" width="140" height="30" as="geometry" />
        </mxCell>
        <mxCell id="IE1BwV5bnImPkAkkBF8V-10" value="&lt;span style=&quot;font-family: Helvetica, &amp;quot;VP Default&amp;quot;; text-wrap: nowrap; background-color: rgb(248, 249, 250);&quot;&gt;id_canal&amp;nbsp;&lt;/span&gt;&lt;span style=&quot;font-family: Helvetica, &amp;quot;VP Default&amp;quot;; text-wrap: nowrap; background-color: rgb(248, 249, 250);&quot;&gt;(fk)&lt;/span&gt;" style="text;strokeColor=none;fillColor=none;align=left;verticalAlign=middle;spacingLeft=4;spacingRight=4;overflow=hidden;points=[[0,0.5],[1,0.5]];portConstraint=eastwest;rotatable=0;whiteSpace=wrap;html=1;" parent="IE1BwV5bnImPkAkkBF8V-1" vertex="1">
          <mxGeometry y="180" width="140" height="30" as="geometry" />
        </mxCell>
        <mxCell id="IE1BwV5bnImPkAkkBF8V-11" value="&lt;span style=&quot;font-family: Helvetica, &amp;quot;VP Default&amp;quot;; text-wrap: nowrap; background-color: rgb(248, 249, 250);&quot;&gt;id_campanha&amp;nbsp;&lt;/span&gt;&lt;span style=&quot;font-family: Helvetica, &amp;quot;VP Default&amp;quot;; text-wrap: nowrap; background-color: rgb(248, 249, 250);&quot;&gt;(fk)&lt;/span&gt;" style="text;strokeColor=none;fillColor=none;align=left;verticalAlign=middle;spacingLeft=4;spacingRight=4;overflow=hidden;points=[[0,0.5],[1,0.5]];portConstraint=eastwest;rotatable=0;whiteSpace=wrap;html=1;" parent="IE1BwV5bnImPkAkkBF8V-1" vertex="1">
          <mxGeometry y="210" width="140" height="30" as="geometry" />
        </mxCell>
        <mxCell id="IE1BwV5bnImPkAkkBF8V-8" value="&lt;span style=&quot;font-family: Helvetica, &amp;quot;VP Default&amp;quot;; text-wrap: nowrap; background-color: rgb(248, 249, 250);&quot;&gt;quantidade&lt;/span&gt;" style="text;strokeColor=none;fillColor=none;align=left;verticalAlign=middle;spacingLeft=4;spacingRight=4;overflow=hidden;points=[[0,0.5],[1,0.5]];portConstraint=eastwest;rotatable=0;whiteSpace=wrap;html=1;" parent="IE1BwV5bnImPkAkkBF8V-1" vertex="1">
          <mxGeometry y="240" width="140" height="30" as="geometry" />
        </mxCell>
        <mxCell id="IE1BwV5bnImPkAkkBF8V-12" value="&lt;span style=&quot;font-family: Helvetica, &amp;quot;VP Default&amp;quot;; text-wrap: nowrap; background-color: rgb(248, 249, 250);&quot;&gt;valor_total&lt;/span&gt;" style="text;strokeColor=none;fillColor=none;align=left;verticalAlign=middle;spacingLeft=4;spacingRight=4;overflow=hidden;points=[[0,0.5],[1,0.5]];portConstraint=eastwest;rotatable=0;whiteSpace=wrap;html=1;" parent="IE1BwV5bnImPkAkkBF8V-1" vertex="1">
          <mxGeometry y="270" width="140" height="30" as="geometry" />
        </mxCell>
        <mxCell id="IE1BwV5bnImPkAkkBF8V-60" style="edgeStyle=elbowEdgeStyle;rounded=0;orthogonalLoop=1;jettySize=auto;html=1;entryX=0;entryY=0.5;entryDx=0;entryDy=0;exitX=1;exitY=0.5;exitDx=0;exitDy=0;" parent="1" source="IE1BwV5bnImPkAkkBF8V-14" target="IE1BwV5bnImPkAkkBF8V-11" edge="1">
          <mxGeometry relative="1" as="geometry" />
        </mxCell>
        <mxCell id="IE1BwV5bnImPkAkkBF8V-13" value="Dim_Campanha" style="swimlane;fontStyle=0;childLayout=stackLayout;horizontal=1;startSize=30;horizontalStack=0;resizeParent=1;resizeParentMax=0;resizeLast=0;collapsible=1;marginBottom=0;whiteSpace=wrap;html=1;" parent="1" vertex="1">
          <mxGeometry x="-270" y="730" width="140" height="90" as="geometry" />
        </mxCell>
        <mxCell id="IE1BwV5bnImPkAkkBF8V-14" value="&lt;span style=&quot;font-family: Helvetica, &amp;quot;VP Default&amp;quot;; text-wrap: nowrap; background-color: rgb(248, 249, 250);&quot;&gt;id_campanha (pk)&lt;/span&gt;" style="text;strokeColor=none;fillColor=none;align=left;verticalAlign=middle;spacingLeft=4;spacingRight=4;overflow=hidden;points=[[0,0.5],[1,0.5]];portConstraint=eastwest;rotatable=0;whiteSpace=wrap;html=1;" parent="IE1BwV5bnImPkAkkBF8V-13" vertex="1">
          <mxGeometry y="30" width="140" height="30" as="geometry" />
        </mxCell>
        <mxCell id="IE1BwV5bnImPkAkkBF8V-15" value="&lt;span style=&quot;font-family: Helvetica, &amp;quot;VP Default&amp;quot;; text-wrap: nowrap; background-color: rgb(248, 249, 250);&quot;&gt;nome_campanha&lt;/span&gt;" style="text;strokeColor=none;fillColor=none;align=left;verticalAlign=middle;spacingLeft=4;spacingRight=4;overflow=hidden;points=[[0,0.5],[1,0.5]];portConstraint=eastwest;rotatable=0;whiteSpace=wrap;html=1;" parent="IE1BwV5bnImPkAkkBF8V-13" vertex="1">
          <mxGeometry y="60" width="140" height="30" as="geometry" />
        </mxCell>
        <mxCell id="IE1BwV5bnImPkAkkBF8V-24" value="Dim_Canal" style="swimlane;fontStyle=0;childLayout=stackLayout;horizontal=1;startSize=30;horizontalStack=0;resizeParent=1;resizeParentMax=0;resizeLast=0;collapsible=1;marginBottom=0;whiteSpace=wrap;html=1;" parent="1" vertex="1">
          <mxGeometry x="130" y="750" width="140" height="90" as="geometry" />
        </mxCell>
        <mxCell id="IE1BwV5bnImPkAkkBF8V-25" value="&lt;span style=&quot;font-family: Helvetica, &amp;quot;VP Default&amp;quot;; text-wrap: nowrap; background-color: rgb(248, 249, 250);&quot;&gt;id_canal (pk)&lt;/span&gt;" style="text;strokeColor=none;fillColor=none;align=left;verticalAlign=middle;spacingLeft=4;spacingRight=4;overflow=hidden;points=[[0,0.5],[1,0.5]];portConstraint=eastwest;rotatable=0;whiteSpace=wrap;html=1;" parent="IE1BwV5bnImPkAkkBF8V-24" vertex="1">
          <mxGeometry y="30" width="140" height="30" as="geometry" />
        </mxCell>
        <mxCell id="IE1BwV5bnImPkAkkBF8V-26" value="&lt;span style=&quot;font-family: Helvetica, &amp;quot;VP Default&amp;quot;; text-wrap: nowrap; background-color: rgb(248, 249, 250);&quot;&gt;nome_canal&lt;/span&gt;" style="text;strokeColor=none;fillColor=none;align=left;verticalAlign=middle;spacingLeft=4;spacingRight=4;overflow=hidden;points=[[0,0.5],[1,0.5]];portConstraint=eastwest;rotatable=0;whiteSpace=wrap;html=1;" parent="IE1BwV5bnImPkAkkBF8V-24" vertex="1">
          <mxGeometry y="60" width="140" height="30" as="geometry" />
        </mxCell>
        <mxCell id="IE1BwV5bnImPkAkkBF8V-27" value="Dim_Cliente" style="swimlane;fontStyle=0;childLayout=stackLayout;horizontal=1;startSize=30;horizontalStack=0;resizeParent=1;resizeParentMax=0;resizeLast=0;collapsible=1;marginBottom=0;whiteSpace=wrap;html=1;" parent="1" vertex="1">
          <mxGeometry x="130" y="210" width="140" height="270" as="geometry" />
        </mxCell>
        <mxCell id="IE1BwV5bnImPkAkkBF8V-28" value="&lt;span style=&quot;font-family: Helvetica, &amp;quot;VP Default&amp;quot;; text-wrap: nowrap; background-color: rgb(248, 249, 250);&quot;&gt;id_cliente (pk)&lt;/span&gt;" style="text;strokeColor=none;fillColor=none;align=left;verticalAlign=middle;spacingLeft=4;spacingRight=4;overflow=hidden;points=[[0,0.5],[1,0.5]];portConstraint=eastwest;rotatable=0;whiteSpace=wrap;html=1;" parent="IE1BwV5bnImPkAkkBF8V-27" vertex="1">
          <mxGeometry y="30" width="140" height="30" as="geometry" />
        </mxCell>
        <mxCell id="IE1BwV5bnImPkAkkBF8V-29" value="&lt;span style=&quot;font-family: Helvetica, &amp;quot;VP Default&amp;quot;; text-wrap: nowrap; background-color: rgb(248, 249, 250);&quot;&gt;nome_cliente&lt;/span&gt;" style="text;strokeColor=none;fillColor=none;align=left;verticalAlign=middle;spacingLeft=4;spacingRight=4;overflow=hidden;points=[[0,0.5],[1,0.5]];portConstraint=eastwest;rotatable=0;whiteSpace=wrap;html=1;" parent="IE1BwV5bnImPkAkkBF8V-27" vertex="1">
          <mxGeometry y="60" width="140" height="30" as="geometry" />
        </mxCell>
        <mxCell id="IE1BwV5bnImPkAkkBF8V-30" value="&lt;span style=&quot;font-family: Helvetica, &amp;quot;VP Default&amp;quot;; text-wrap: nowrap; background-color: rgb(248, 249, 250);&quot;&gt;email&lt;/span&gt;" style="text;strokeColor=none;fillColor=none;align=left;verticalAlign=middle;spacingLeft=4;spacingRight=4;overflow=hidden;points=[[0,0.5],[1,0.5]];portConstraint=eastwest;rotatable=0;whiteSpace=wrap;html=1;" parent="IE1BwV5bnImPkAkkBF8V-27" vertex="1">
          <mxGeometry y="90" width="140" height="30" as="geometry" />
        </mxCell>
        <mxCell id="IE1BwV5bnImPkAkkBF8V-31" value="&lt;span style=&quot;font-family: Helvetica, &amp;quot;VP Default&amp;quot;; text-wrap: nowrap; background-color: rgb(248, 249, 250);&quot;&gt;telefone&lt;/span&gt;" style="text;strokeColor=none;fillColor=none;align=left;verticalAlign=middle;spacingLeft=4;spacingRight=4;overflow=hidden;points=[[0,0.5],[1,0.5]];portConstraint=eastwest;rotatable=0;whiteSpace=wrap;html=1;" parent="IE1BwV5bnImPkAkkBF8V-27" vertex="1">
          <mxGeometry y="120" width="140" height="30" as="geometry" />
        </mxCell>
        <mxCell id="IE1BwV5bnImPkAkkBF8V-32" value="&lt;span style=&quot;font-family: Helvetica, &amp;quot;VP Default&amp;quot;; text-wrap: nowrap; background-color: rgb(248, 249, 250);&quot;&gt;avatar&lt;/span&gt;" style="text;strokeColor=none;fillColor=none;align=left;verticalAlign=middle;spacingLeft=4;spacingRight=4;overflow=hidden;points=[[0,0.5],[1,0.5]];portConstraint=eastwest;rotatable=0;whiteSpace=wrap;html=1;" parent="IE1BwV5bnImPkAkkBF8V-27" vertex="1">
          <mxGeometry y="150" width="140" height="30" as="geometry" />
        </mxCell>
        <mxCell id="IE1BwV5bnImPkAkkBF8V-67" value="&lt;span style=&quot;font-family: Helvetica, &amp;quot;VP Default&amp;quot;; text-wrap: nowrap; background-color: rgb(248, 249, 250);&quot;&gt;idade&lt;/span&gt;" style="text;strokeColor=none;fillColor=none;align=left;verticalAlign=middle;spacingLeft=4;spacingRight=4;overflow=hidden;points=[[0,0.5],[1,0.5]];portConstraint=eastwest;rotatable=0;whiteSpace=wrap;html=1;" parent="IE1BwV5bnImPkAkkBF8V-27" vertex="1">
          <mxGeometry y="180" width="140" height="30" as="geometry" />
        </mxCell>
        <mxCell id="IE1BwV5bnImPkAkkBF8V-68" value="&lt;span style=&quot;font-family: Helvetica, &amp;quot;VP Default&amp;quot;; text-wrap: nowrap; background-color: rgb(248, 249, 250);&quot;&gt;genero&lt;/span&gt;" style="text;strokeColor=none;fillColor=none;align=left;verticalAlign=middle;spacingLeft=4;spacingRight=4;overflow=hidden;points=[[0,0.5],[1,0.5]];portConstraint=eastwest;rotatable=0;whiteSpace=wrap;html=1;" parent="IE1BwV5bnImPkAkkBF8V-27" vertex="1">
          <mxGeometry y="210" width="140" height="30" as="geometry" />
        </mxCell>
        <mxCell id="IE1BwV5bnImPkAkkBF8V-69" value="&lt;span style=&quot;font-family: Helvetica, &amp;quot;VP Default&amp;quot;; text-wrap: nowrap; background-color: rgb(248, 249, 250);&quot;&gt;id_localizacao (fk)&lt;/span&gt;" style="text;strokeColor=none;fillColor=none;align=left;verticalAlign=middle;spacingLeft=4;spacingRight=4;overflow=hidden;points=[[0,0.5],[1,0.5]];portConstraint=eastwest;rotatable=0;whiteSpace=wrap;html=1;" parent="IE1BwV5bnImPkAkkBF8V-27" vertex="1">
          <mxGeometry y="240" width="140" height="30" as="geometry" />
        </mxCell>
        <mxCell id="IE1BwV5bnImPkAkkBF8V-38" value="Dim_Localizacao" style="swimlane;fontStyle=0;childLayout=stackLayout;horizontal=1;startSize=30;horizontalStack=0;resizeParent=1;resizeParentMax=0;resizeLast=0;collapsible=1;marginBottom=0;whiteSpace=wrap;html=1;" parent="1" vertex="1">
          <mxGeometry x="130" y="570" width="140" height="150" as="geometry" />
        </mxCell>
        <mxCell id="IE1BwV5bnImPkAkkBF8V-39" value="&lt;span style=&quot;font-family: Helvetica, &amp;quot;VP Default&amp;quot;; text-wrap: nowrap; background-color: rgb(248, 249, 250);&quot;&gt;id_localizacao (pk)&lt;/span&gt;" style="text;strokeColor=none;fillColor=none;align=left;verticalAlign=middle;spacingLeft=4;spacingRight=4;overflow=hidden;points=[[0,0.5],[1,0.5]];portConstraint=eastwest;rotatable=0;whiteSpace=wrap;html=1;" parent="IE1BwV5bnImPkAkkBF8V-38" vertex="1">
          <mxGeometry y="30" width="140" height="30" as="geometry" />
        </mxCell>
        <mxCell id="IE1BwV5bnImPkAkkBF8V-40" value="&lt;span style=&quot;font-family: Helvetica, &amp;quot;VP Default&amp;quot;; text-wrap: nowrap; background-color: rgb(248, 249, 250);&quot;&gt;cidade&lt;/span&gt;" style="text;strokeColor=none;fillColor=none;align=left;verticalAlign=middle;spacingLeft=4;spacingRight=4;overflow=hidden;points=[[0,0.5],[1,0.5]];portConstraint=eastwest;rotatable=0;whiteSpace=wrap;html=1;" parent="IE1BwV5bnImPkAkkBF8V-38" vertex="1">
          <mxGeometry y="60" width="140" height="30" as="geometry" />
        </mxCell>
        <mxCell id="IE1BwV5bnImPkAkkBF8V-41" value="&lt;span style=&quot;font-family: Helvetica, &amp;quot;VP Default&amp;quot;; text-wrap: nowrap; background-color: rgb(248, 249, 250);&quot;&gt;estado&lt;/span&gt;" style="text;strokeColor=none;fillColor=none;align=left;verticalAlign=middle;spacingLeft=4;spacingRight=4;overflow=hidden;points=[[0,0.5],[1,0.5]];portConstraint=eastwest;rotatable=0;whiteSpace=wrap;html=1;" parent="IE1BwV5bnImPkAkkBF8V-38" vertex="1">
          <mxGeometry y="90" width="140" height="30" as="geometry" />
        </mxCell>
        <mxCell id="IE1BwV5bnImPkAkkBF8V-42" value="&lt;span style=&quot;font-family: Helvetica, &amp;quot;VP Default&amp;quot;; text-wrap: nowrap; background-color: rgb(248, 249, 250);&quot;&gt;pais&lt;/span&gt;" style="text;strokeColor=none;fillColor=none;align=left;verticalAlign=middle;spacingLeft=4;spacingRight=4;overflow=hidden;points=[[0,0.5],[1,0.5]];portConstraint=eastwest;rotatable=0;whiteSpace=wrap;html=1;" parent="IE1BwV5bnImPkAkkBF8V-38" vertex="1">
          <mxGeometry y="120" width="140" height="30" as="geometry" />
        </mxCell>
        <mxCell id="IE1BwV5bnImPkAkkBF8V-44" value="Dim_Produto" style="swimlane;fontStyle=0;childLayout=stackLayout;horizontal=1;startSize=30;horizontalStack=0;resizeParent=1;resizeParentMax=0;resizeLast=0;collapsible=1;marginBottom=0;whiteSpace=wrap;html=1;" parent="1" vertex="1">
          <mxGeometry x="-270" y="510" width="140" height="180" as="geometry" />
        </mxCell>
        <mxCell id="IE1BwV5bnImPkAkkBF8V-45" value="&lt;span style=&quot;font-family: Helvetica, &amp;quot;VP Default&amp;quot;; text-wrap: nowrap; background-color: rgb(248, 249, 250);&quot;&gt;id_produto (pk)&lt;/span&gt;" style="text;strokeColor=none;fillColor=none;align=left;verticalAlign=middle;spacingLeft=4;spacingRight=4;overflow=hidden;points=[[0,0.5],[1,0.5]];portConstraint=eastwest;rotatable=0;whiteSpace=wrap;html=1;" parent="IE1BwV5bnImPkAkkBF8V-44" vertex="1">
          <mxGeometry y="30" width="140" height="30" as="geometry" />
        </mxCell>
        <mxCell id="IE1BwV5bnImPkAkkBF8V-46" value="&lt;span style=&quot;font-family: Helvetica, &amp;quot;VP Default&amp;quot;; text-wrap: nowrap; background-color: rgb(248, 249, 250);&quot;&gt;nome_produto&lt;/span&gt;" style="text;strokeColor=none;fillColor=none;align=left;verticalAlign=middle;spacingLeft=4;spacingRight=4;overflow=hidden;points=[[0,0.5],[1,0.5]];portConstraint=eastwest;rotatable=0;whiteSpace=wrap;html=1;" parent="IE1BwV5bnImPkAkkBF8V-44" vertex="1">
          <mxGeometry y="60" width="140" height="30" as="geometry" />
        </mxCell>
        <mxCell id="IE1BwV5bnImPkAkkBF8V-47" value="&lt;span style=&quot;font-family: Helvetica, &amp;quot;VP Default&amp;quot;; text-wrap: nowrap; background-color: rgb(248, 249, 250);&quot;&gt;categoria&lt;/span&gt;" style="text;strokeColor=none;fillColor=none;align=left;verticalAlign=middle;spacingLeft=4;spacingRight=4;overflow=hidden;points=[[0,0.5],[1,0.5]];portConstraint=eastwest;rotatable=0;whiteSpace=wrap;html=1;" parent="IE1BwV5bnImPkAkkBF8V-44" vertex="1">
          <mxGeometry y="90" width="140" height="30" as="geometry" />
        </mxCell>
        <mxCell id="IE1BwV5bnImPkAkkBF8V-48" value="&lt;span style=&quot;font-family: Helvetica, &amp;quot;VP Default&amp;quot;; text-wrap: nowrap; background-color: rgb(248, 249, 250);&quot;&gt;marca&lt;/span&gt;" style="text;strokeColor=none;fillColor=none;align=left;verticalAlign=middle;spacingLeft=4;spacingRight=4;overflow=hidden;points=[[0,0.5],[1,0.5]];portConstraint=eastwest;rotatable=0;whiteSpace=wrap;html=1;" parent="IE1BwV5bnImPkAkkBF8V-44" vertex="1">
          <mxGeometry y="120" width="140" height="30" as="geometry" />
        </mxCell>
        <mxCell id="IE1BwV5bnImPkAkkBF8V-49" value="&lt;span style=&quot;font-family: Helvetica, &amp;quot;VP Default&amp;quot;; text-wrap: nowrap; background-color: rgb(248, 249, 250);&quot;&gt;preco&lt;/span&gt;" style="text;strokeColor=none;fillColor=none;align=left;verticalAlign=middle;spacingLeft=4;spacingRight=4;overflow=hidden;points=[[0,0.5],[1,0.5]];portConstraint=eastwest;rotatable=0;whiteSpace=wrap;html=1;" parent="IE1BwV5bnImPkAkkBF8V-44" vertex="1">
          <mxGeometry y="150" width="140" height="30" as="geometry" />
        </mxCell>
        <mxCell id="IE1BwV5bnImPkAkkBF8V-51" value="Dim_Tempo" style="swimlane;fontStyle=0;childLayout=stackLayout;horizontal=1;startSize=30;horizontalStack=0;resizeParent=1;resizeParentMax=0;resizeLast=0;collapsible=1;marginBottom=0;whiteSpace=wrap;html=1;" parent="1" vertex="1">
          <mxGeometry x="-270" y="325" width="140" height="150" as="geometry" />
        </mxCell>
        <mxCell id="IE1BwV5bnImPkAkkBF8V-52" value="&lt;span style=&quot;font-family: Helvetica, &amp;quot;VP Default&amp;quot;; text-wrap: nowrap; background-color: rgb(248, 249, 250);&quot;&gt;id_tempo (pk)&lt;/span&gt;" style="text;strokeColor=none;fillColor=none;align=left;verticalAlign=middle;spacingLeft=4;spacingRight=4;overflow=hidden;points=[[0,0.5],[1,0.5]];portConstraint=eastwest;rotatable=0;whiteSpace=wrap;html=1;shadow=0;" parent="IE1BwV5bnImPkAkkBF8V-51" vertex="1">
          <mxGeometry y="30" width="140" height="30" as="geometry" />
        </mxCell>
        <mxCell id="IE1BwV5bnImPkAkkBF8V-53" value="&lt;span style=&quot;font-family: Helvetica, &amp;quot;VP Default&amp;quot;; text-wrap: nowrap; background-color: rgb(248, 249, 250);&quot;&gt;ano&lt;/span&gt;" style="text;strokeColor=none;fillColor=none;align=left;verticalAlign=middle;spacingLeft=4;spacingRight=4;overflow=hidden;points=[[0,0.5],[1,0.5]];portConstraint=eastwest;rotatable=0;whiteSpace=wrap;html=1;" parent="IE1BwV5bnImPkAkkBF8V-51" vertex="1">
          <mxGeometry y="60" width="140" height="30" as="geometry" />
        </mxCell>
        <mxCell id="IE1BwV5bnImPkAkkBF8V-54" value="&lt;span style=&quot;font-family: Helvetica, &amp;quot;VP Default&amp;quot;; text-wrap: nowrap; background-color: rgb(248, 249, 250);&quot;&gt;mes&lt;/span&gt;" style="text;strokeColor=none;fillColor=none;align=left;verticalAlign=middle;spacingLeft=4;spacingRight=4;overflow=hidden;points=[[0,0.5],[1,0.5]];portConstraint=eastwest;rotatable=0;whiteSpace=wrap;html=1;" parent="IE1BwV5bnImPkAkkBF8V-51" vertex="1">
          <mxGeometry y="90" width="140" height="30" as="geometry" />
        </mxCell>
        <mxCell id="IE1BwV5bnImPkAkkBF8V-55" value="&lt;span style=&quot;font-family: Helvetica, &amp;quot;VP Default&amp;quot;; text-wrap: nowrap; background-color: rgb(248, 249, 250);&quot;&gt;dia&lt;/span&gt;" style="text;strokeColor=none;fillColor=none;align=left;verticalAlign=middle;spacingLeft=4;spacingRight=4;overflow=hidden;points=[[0,0.5],[1,0.5]];portConstraint=eastwest;rotatable=0;whiteSpace=wrap;html=1;" parent="IE1BwV5bnImPkAkkBF8V-51" vertex="1">
          <mxGeometry y="120" width="140" height="30" as="geometry" />
        </mxCell>
        <mxCell id="IE1BwV5bnImPkAkkBF8V-59" style="edgeStyle=elbowEdgeStyle;rounded=0;orthogonalLoop=1;jettySize=auto;html=1;" parent="1" source="IE1BwV5bnImPkAkkBF8V-52" target="IE1BwV5bnImPkAkkBF8V-3" edge="1">
          <mxGeometry relative="1" as="geometry" />
        </mxCell>
        <mxCell id="IE1BwV5bnImPkAkkBF8V-61" style="edgeStyle=elbowEdgeStyle;rounded=0;orthogonalLoop=1;jettySize=auto;html=1;entryX=1;entryY=0.5;entryDx=0;entryDy=0;" parent="1" source="IE1BwV5bnImPkAkkBF8V-25" target="IE1BwV5bnImPkAkkBF8V-10" edge="1">
          <mxGeometry relative="1" as="geometry" />
        </mxCell>
        <mxCell id="IE1BwV5bnImPkAkkBF8V-62" style="edgeStyle=elbowEdgeStyle;rounded=0;orthogonalLoop=1;jettySize=auto;html=1;entryX=1;entryY=0.5;entryDx=0;entryDy=0;" parent="1" source="IE1BwV5bnImPkAkkBF8V-28" target="IE1BwV5bnImPkAkkBF8V-7" edge="1">
          <mxGeometry relative="1" as="geometry" />
        </mxCell>
        <mxCell id="IE1BwV5bnImPkAkkBF8V-63" style="edgeStyle=elbowEdgeStyle;rounded=0;orthogonalLoop=1;jettySize=auto;html=1;entryX=1;entryY=0.5;entryDx=0;entryDy=0;" parent="1" source="IE1BwV5bnImPkAkkBF8V-39" target="IE1BwV5bnImPkAkkBF8V-9" edge="1">
          <mxGeometry relative="1" as="geometry" />
        </mxCell>
        <mxCell id="IE1BwV5bnImPkAkkBF8V-64" style="edgeStyle=elbowEdgeStyle;rounded=0;orthogonalLoop=1;jettySize=auto;html=1;entryX=0;entryY=0.5;entryDx=0;entryDy=0;" parent="1" source="IE1BwV5bnImPkAkkBF8V-45" target="IE1BwV5bnImPkAkkBF8V-4" edge="1">
          <mxGeometry relative="1" as="geometry" />
        </mxCell>
        <mxCell id="IE1BwV5bnImPkAkkBF8V-73" style="edgeStyle=elbowEdgeStyle;rounded=0;orthogonalLoop=1;jettySize=auto;html=1;entryX=1;entryY=0.5;entryDx=0;entryDy=0;exitX=1;exitY=0.5;exitDx=0;exitDy=0;" parent="1" source="IE1BwV5bnImPkAkkBF8V-69" target="IE1BwV5bnImPkAkkBF8V-39" edge="1">
          <mxGeometry relative="1" as="geometry">
            <Array as="points">
              <mxPoint x="310" y="540" />
            </Array>
          </mxGeometry>
        </mxCell>
      </root>
    </mxGraphModel>
  </diagram>
</mxfile>
